<svg version="1.1" xmlns="http://www.w3.org/2000/svg" viewBox="0 0 735.5 290">
  <defs>
    <style>
      @font-face {
        font-family: "Virgil";
        src: url("https://excalidraw.com/FG_Virgil.ttf");
      }
      @font-face {
        font-family: "Cascadia";
        src: url("https://excalidraw.com/Cascadia.ttf");
      }
    </style>
  </defs>
  <rect x="0" y="0" width="735.5" height="290" fill="#ffffff"></rect><g stroke-opacity="0.41" fill-opacity="0.41" transform="translate(10 10)"><path d="M0 0 C0 0, 0 0, 0 0 M0 0 C0 0, 0 0, 0 0 M-0.666954965111787 6.997017376174323 C2.0676060746108225 4.218245430801173, 3.0131822541252555 3.2705481564347703, 4.966083192410416 1.1411352824268155 M-0.060152427074486925 6.762330974687926 C1.7241746397597497 4.346428450942635, 2.802633412242856 2.2480253346081405, 4.686434486093468 0.6184326570329481 M-0.1567079416383399 10.931127769171773 C3.486560306620033 7.753677962588011, 7.109004717365249 2.984096342731461, 11.844097377312314 -0.2768888597294925 M0.276510209692608 12.404510665356694 C2.654696493082093 9.938405661269412, 4.463672825630472 7.260023860367831, 10.771753127825392 -0.20615584300013767 M-0.13770708726255698 16.901507629920417 C5.737638684830107 13.908462448493449, 8.363194299575316 5.068357107801294, 17.203310213520606 0.025282189894931584 M-0.9150442136964063 18.06107754157918 C4.066353252786811 14.766565260923828, 7.215129936967904 10.804425989102015, 16.0063690240527 0.4771253845584562 M0.3391404675505374 24.60986631894028 C4.161561462164041 15.686407004020246, 10.169968261802586 11.269887405079812, 21.269892817640567 0.7934221228748086 M1.2132880689761851 24.588734736382126 C8.450626043227533 15.664653657951275, 15.851927941361566 6.550081540383502, 20.44777162214544 0.18119437752063305 M-1.3797896345565661 29.315045794237605 C7.995664994960059 18.88235084966371, 18.52461908715508 9.52596158521727, 26.094311046090336 0.4250820608821453 M0.25022044131060994 29.531417978693 C4.903998055589143 23.12528969015351, 11.40730653789347 16.326718762670986, 25.395186419275017 0.9802210586157383 M1.295643666656641 38.33606694433962 C9.189842323065745 26.969476804746222, 18.917625005768386 14.732468349135551, 31.750889988100923 -0.09355168777860356 M-1.0097603333276233 36.179583703914034 C7.9730375646565825 26.854310119224927, 16.76525030282254 16.046317968979213, 31.760096707797445 0.3240147830232267 M-1.341293568569327 40.53882565777354 C12.0614855263905 30.387871164136364, 22.003792164984453 17.65521120236963, 35.89284361694132 0.2894205060881099 M-0.7487299915730006 42.175250847447444 C9.044865993847354 32.430435305798106, 19.757495924669886 19.964279794777166, 36.603187164106714 -0.7172142731863538 M-0.7623873669654913 48.100221563734934 C10.747173285845578 34.28340456372379, 24.446379959358943 20.976551489732337, 43.50074702184253 0.15393495078673425 M-0.34350385703154274 48.02612958536379 C9.968732468735704 37.09189518541153, 21.02028823569503 24.285927244009983, 42.132816080558825 0.7594682451664454 M-1.112062639300838 54.72519097052823 C16.829575760350743 35.15647137952065, 34.53975555849874 15.843879560725505, 46.13406417607355 1.1456412755128191 M-0.023223637347236092 54.07265427284251 C12.50094095075198 41.20501630451629, 23.252817150774096 28.65404604013652, 48.20654313354778 -0.22260248584782616 M0.04414458769362284 61.184383507349 C17.174110629650414 40.180348500609526, 35.41274723175753 18.02166268271513, 51.679620168865384 1.438225788570822 M-0.36782965612609075 60.77566008595417 C11.03821034268268 48.03868947628916, 22.230048644057053 35.30112100658262, 53.32960161542958 -0.30736711104971093 M0.8120003742583961 65.53119506272445 C21.874282781575847 42.44560753016526, 40.702802383390384 19.83897427385154, 59.60312897348703 1.2710881191562855 M0.034352349997398335 67.68341596010099 C16.510832206290424 47.982566550408805, 32.32977043071395 30.185012483879795, 57.156426202598226 0.48163454563133357 M1.500395780633987 72.86589652518181 C19.064636439313738 54.366287687928704, 36.792211110555726 32.46943253335752, 62.69766567916949 0.4116645755736599 M0.36843414438873623 73.94575333068518 C12.779611484785953 58.97307629393823, 26.976000709439692 43.87256908498607, 63.48912518740971 -1.0464131606252423 M0.4652878380704024 79.59034336347109 C15.468998530305306 61.705471729972516, 29.65650526643806 45.1004345167815, 70.33519425918176 -0.3068952129815088 M0.68690596142293 77.31877571333176 C26.692645277641198 48.59916375252401, 51.762628047782336 17.696716121237266, 68.77900824625804 1.0380749462511076 M6.546053722770168 76.37971814522842 C31.842128033483153 47.39625722469725, 58.35553265773416 20.2009546979452, 74.21503980275484 -1.5234049382047488 M5.595990680427505 77.88660122255186 C25.836293825876055 57.25702464656486, 43.202791190929965 34.799492752571346, 75.12505867149922 -0.0025917785601450305 M13.724605321030758 79.00317424031769 C36.69866300851221 50.81797024159102, 60.54312739354914 23.666217540936813, 79.61541628315774 0.18903502909945757 M12.164758390824936 77.63200627508436 C37.32511952978015 48.82505251109509, 63.89829393240103 18.221095527238177, 78.77546113952724 0.7142968410115174 M18.15415660612115 78.01261127793438 C40.95986824508583 49.43843979277047, 67.13772523386326 18.403042716892166, 83.14189878962145 -2.2146390027644145 M16.2038937690092 78.87520104699976 C45.24407266517718 46.114320139301654, 71.06962720382737 15.248313796610226, 85.1260739426981 -0.09582483985442991 M23.315282667272356 77.48796556638302 C38.15821570333351 59.26220642572231, 50.626723861242716 43.48979545104009, 91.97895129541496 -0.7137774046008332 M22.67175510733631 77.76911989347758 C41.279189973297164 57.19728872211728, 57.68066309329798 37.14548954286962, 89.22195675740579 0.402878354912545 M27.26744747775338 76.57488673485909 C42.77315158058093 61.59298637642975, 61.160976691837035 40.69061530129473, 97.63839888976932 1.2403061318946698 M28.175902082200267 78.58709799058829 C51.78547852712181 52.45924446790179, 74.91625885437159 25.982782854657955, 94.75584287600637 -0.6210342195080898 M32.39747612679521 78.94706109166711 C51.93909380160851 52.28659364506949, 75.4861442871122 31.42829266619315, 99.21095554595345 -1.7379887640823668 M33.971567985957066 77.93519469351142 C56.22734390946365 52.304857056742165, 78.84741938958987 26.609991641856986, 100.56966697489375 0.6213976129542047 M36.67108258766686 78.34388826600257 C62.36273237735915 50.0481904388421, 87.76638036823582 20.87373710861464, 105.11469635319841 0.4937742157725111 M38.46318749500071 79.03987017831746 C64.32607179357638 47.320453163607304, 92.61260075785788 16.80302375558199, 105.65303734642399 -1.2481417925211176 M43.38134194959932 76.03280456616994 C65.4848998704188 56.26062771885444, 82.52716767965131 30.732919718762624, 112.34658528477318 -0.8562552993451575 M44.2028689016872 77.96030880018589 C64.40178780835967 53.46829959800573, 84.61748985811295 31.042370521187813, 111.64476366699107 -0.4875672598635177 M48.40021818586159 78.34695962136479 C76.0743780658729 48.353689711967505, 101.27890207677262 16.266389523150693, 115.57488840091827 0.7028185790918755 M48.39192188241053 77.87609573518725 C66.85006936249164 58.57075262989268, 85.4776841698134 36.58937023154093, 117.1752701999605 0.7326401463292527 M53.92703638568469 78.14753973989153 C78.45380651660962 46.689819607842395, 104.93380308100214 19.781801823869763, 121.67099676187416 0.7087667396108088 M53.87932972952672 77.29954033850098 C67.50442208911954 61.76203707648516, 82.17509947969063 44.445304573823144, 121.64841870869776 0.843561861459392 M59.74001052233757 76.36144455094575 C84.8422050071609 49.88893575604666, 111.22730790471694 16.79331975971732, 128.24124934090986 1.5103638114072098 M59.66327711942972 78.36335278619765 C83.6280038905935 50.23994562964368, 109.5914103822428 20.014082950031835, 127.02333136959686 -0.6080294384025322 M64.94471568505128 79.44361036283188 C87.10459066271306 49.10672802413917, 111.99505985406061 23.159080899544207, 132.71934622725638 -1.5155788972144677 M65.88962234447558 77.0329674334567 C84.96553379902181 56.101015024844756, 105.4136478610193 32.03004539583245, 132.15680397501382 0.007363101922933879 M71.22561584709482 76.91468680474546 C86.93064105399796 54.15987289967862, 108.69185142859291 32.05575480815863, 135.61787639418273 1.573463242941287 M70.3534250810583 77.39421945634868 C91.8416249118538 52.929360847198524, 114.52559620428522 28.374298749378738, 137.30483370134263 0.6896371585063008 M76.59453609769913 78.82336018499096 C90.62227459752589 59.07842577370343, 103.97503672466756 45.021329851468835, 142.27678993091988 0.7480515401789916 M75.49741862153384 77.86566821005304 C99.1805416808404 51.99064543392602, 121.62800631040595 25.60741150025106, 143.12109134093927 0.0214145865270865 M78.64219041013328 77.28403013276393 C96.42928725171922 61.075090195888265, 112.86563212911985 41.320742268124015, 150.11492581073682 -0.4555393763058646 M80.91353764229623 77.48627387064035 C98.80396153788958 55.79859144471996, 116.2553413077618 35.49851548556526, 149.15844907019775 -0.5442819379442199 M84.28665387362825 75.9391329563688 C105.33693291714505 54.2064997563467, 122.3317287226443 33.097552572979865, 154.37848412286462 0.5270018017912008 M86.34139043570148 78.12772079329001 C104.05444416445789 56.182791495539306, 122.60341382099482 35.60272100210453, 152.8674526814741 -0.4717055597281359 M93.02489046145303 79.49681828500114 C116.83917401472007 46.827671343583326, 146.88720685555325 17.224758631535153, 159.3925538405722 -1.1743002963342803 M92.16978667814357 78.78209415407262 C115.15101698177564 48.74625433876737, 139.54469146647546 20.869320522582086, 158.09784935116227 0.14529139724587026 M98.0251662338481 79.94798200718814 C114.16336222974954 60.8974900848514, 129.24660165841536 43.47609344493515, 164.3095850530906 -0.4013843623778399 M95.77915063298798 78.52891288839037 C111.15405175676692 61.91412217056135, 126.91634457949152 44.12316104160898, 164.09705987161828 0.7955807881572667 M100.65887225105399 78.3303950114571 C116.34170754919167 62.02881929874944, 131.05027225960237 42.09540330413766, 170.36091673368878 -0.4304757671439461 M101.32334406360025 77.04925843164553 C119.37452268156417 56.26143290407737, 139.44976068532196 34.56886814138583, 170.01170641923613 0.8384352890765854 M105.0323474863397 78.4928319270035 C121.93748123801161 63.663330188053266, 133.92847254291848 44.86780374734403, 174.6052489715978 0.49023679767188355 M107.51148914637436 79.1399034599086 C123.59176697031636 58.06142164479273, 141.7268069999401 38.32349167244448, 175.88608478637184 -0.28414824481669143 M111.07929202893622 77.3121040621318 C136.7280228841298 46.88620114883874, 162.88117779848358 19.659569953998556, 181.18017074008662 -1.3217220387348618 M111.95038167366631 77.68034482835904 C129.61482522734283 56.2826638117363, 148.68569811336988 36.40277961512597, 179.16369214941938 -0.7597721374520745 M117.81229485211256 78.23073604603758 C130.84875298824835 60.493116486628985, 148.4381128450365 43.54139498215727, 187.0506321283863 -1.5207909680596572 M117.64601882187011 77.92048021306744 C144.09476270328366 46.11366680843771, 169.75897815493235 16.329613095321378, 185.6856993007348 -0.1933145336500388 M125.0713060450997 76.71928918702525 C145.6664901696228 51.228527541882116, 171.22864006675502 25.632234171687763, 189.26047210976577 1.8043046388929724 M124.00207138334176 77.69293146921319 C146.04692063715794 51.791932838418674, 167.95345833096624 23.682208428739692, 190.19247841671205 0.6807472426598906 M128.77516458116668 77.81403811429041 C147.38266579622527 57.11104856922555, 163.50860938025104 38.76707278814955, 194.68089077345604 1.592876090427552 M127.32141153447526 77.7007212728669 C144.0983144792148 59.136787215193785, 160.4120753844026 40.39346428321477, 197.32207528970713 0.2106600466572388 M134.67007054954445 77.57929413613749 C151.66426906324457 57.06758051598297, 172.85864115754953 34.35532512646996, 203.2619770927261 -0.6500519842604291 M133.8045850676266 77.729596479208 C152.43515609227327 55.40874846750517, 171.49450308499533 33.81791388006994, 202.11173709611404 0.11507155441249495 M137.58111292350202 76.645081881762 C165.69747085392103 46.06289007971437, 192.10444205331981 17.693239496451127, 205.781181156807 -1.3914182768664887 M138.05133915918975 78.93570476430699 C163.22007396045524 51.16654367946501, 186.93920096903454 22.1903864895069, 206.9963846282888 -0.30464637889485857 M143.16074179227041 77.66946265946845 C167.9758433858526 49.402599954568316, 191.81851532675938 20.24316407932298, 211.0948419389677 -1.5324481581950948 M144.05909460152077 78.0579179833434 C160.01357272300697 59.45205303075629, 175.51559206632868 41.741120163771704, 212.3101400626254 0.12327892280571007 M151.1402961291186 78.87621109845234 C170.76233069665918 51.57029837565952, 193.2675767194033 27.59674232628344, 215.88665952843922 -0.9463303199417652 M149.72447357101362 77.70550881238772 C167.50917869871458 57.64653208389962, 184.23617385080018 38.236719741861265, 217.28479919147986 0.6533443146936833 M153.07847602327766 79.51713850701816 C182.67510821502705 48.556910292964965, 206.47940409206643 17.213125794692218, 223.91922289849057 -0.9405401329110106 M155.84177186002435 78.57047410661943 C173.78448402587588 54.38573901321104, 193.45772933256086 33.44306738138896, 222.55135919124618 0.9104474728395502 M159.61287044801648 77.40976951436143 C184.15725414498405 50.947219844248764, 210.14753914095343 18.809472357721823, 227.78248213835272 1.205483711201694 M160.6044866449469 77.71521154210906 C175.55111458149946 61.323536060185745, 189.76064230641586 44.50352210531543, 229.13849085428032 -0.8977897475771641 M166.20842949256615 78.39966542878662 C181.24738799740794 60.435367412941694, 195.15790633968828 45.849050729854554, 232.1452762212947 1.778015841591838 M166.6037887181373 76.78484297403608 C186.56604598431983 53.66270320633515, 206.528917431529 30.366083047091962, 232.97406635697632 0.3066553295140295 M172.4089921301956 77.89810087948926 C191.71028939799726 55.74976519140236, 211.55436996063872 28.29535408533188, 238.84774620755695 0.8460771467866692 M171.33005025598953 78.29489107847103 C189.61501317126778 56.31901924261471, 210.2570510249833 33.19894901713097, 237.22757246269964 -0.5607608604846206 M175.58575845013587 78.34438717477383 C197.35269148134464 52.531824985221476, 223.42378124864098 26.767659319663302, 245.43315815738003 0.025563515313422158 M176.1713170508596 77.84360271059336 C200.45950294518187 52.63081200284283, 222.2010352722022 25.215512677320774, 244.09193343481581 -0.23301938217088036 M182.18881742565594 78.74354894383585 C205.9386444276983 49.664397275045545, 231.43186506243276 22.126163358204757, 247.67972604403292 0.2433745763676285 M180.91483627914153 78.39962554647362 C201.55710346000802 55.99571383777801, 222.42740977440127 31.75214472279223, 248.56533394971882 -0.577410059474218 M185.49561914598684 76.12864749497979 C205.59778026874213 55.71119968907604, 224.75348886494993 34.77675601685561, 252.69302495674663 -0.04555336174624358 M186.7455287331913 78.51433144129126 C210.89675773943256 50.782881948726754, 232.74259224820116 23.756717695404397, 254.79363229976468 0.37150146278483476 M192.86250258439753 79.09845745740118 C216.95640587176223 52.62871715556379, 240.05885169945645 23.685245265859322, 258.15751886879013 0.6794293301673235 M192.7475165894029 78.60949307111683 C218.2848314346437 47.85237791749503, 244.12385029142627 18.005660402389672, 258.5718881613474 0.6995503606767954 M199.47316783011908 77.27979013940453 C211.20939852795567 59.72444279329058, 226.32194779217986 46.01406205230429, 266.08503286939447 0.4670089604128691 M196.90259564013238 77.18960729112982 C217.07798556424126 54.405198143537675, 237.65634211986952 31.46359383184039, 264.3428348268229 0.8252959893812033 M203.5902038564204 78.86517017018528 C228.27067718736046 47.633691301117956, 253.40021376522648 20.666312038033396, 270.06628093182866 -0.5684148418141888 M202.59176306177366 77.12957177740068 C222.92623640483288 55.11904821068465, 243.9951604519482 29.38169364518331, 269.69840697258536 -0.21230147503152352 M207.64750172354206 76.82986843827074 C229.04450109721787 53.82948790530679, 251.675910238702 28.970404586683664, 277.0193381453236 1.215594231790675 M206.93763061769232 78.64171796533172 C227.25241929738144 54.20517478769523, 248.67042174709846 31.374274247221635, 276.3782128909906 -0.54155767738186 M212.78207749172452 78.69603083218813 C237.5039821445558 50.85327977806127, 258.5554674684222 22.578021101635798, 282.4411684831484 -1.4728141895769795 M212.5862475712538 77.78993979032516 C236.257972832269 49.123733142895084, 260.34916327602997 21.674427432905603, 280.77106225843266 0.8296125584007541 M217.36589513423678 80.29680698113296 C236.6163659888325 60.77753734478484, 252.177651853008 38.31110841802166, 287.50003800554344 -0.6427442173899465 M217.48892359885212 79.00382242845151 C233.3352685063537 59.880783569507216, 248.34795099796702 42.87929298340827, 286.2573793382771 0.9807281677185244 M222.09827974030986 75.9933831934097 C235.94477599344398 62.85337068302976, 249.49263681833764 45.937552107388825, 283.6628065118348 7.53596125888393 M223.2446419928433 78.04567523489024 C247.79648693390465 52.3315977594379, 270.461748746661 24.364389811072463, 285.0864946329748 6.385256807978607 M229.25744528321275 80.21265909821393 C244.9223070171407 58.50814015674704, 262.032487547205 40.311754133364545, 286.25246229418696 14.610271485989756 M229.6015874296213 78.29820838571193 C247.20118292483718 55.82843104142168, 265.38375862807624 34.56134149295269, 285.18417963781536 13.538165772801108 M232.44896685217648 76.90957100385005 C245.87041270127733 64.0223117198916, 257.18563228535277 54.358370819342596, 284.5784693258689 20.475836093123007 M233.4556182015422 76.97685623609597 C255.96293679831678 53.85757665964647, 275.8488725769083 32.24130860134398, 285.53299402919276 18.337790238256503 M239.85730842047 77.10476853951363 C255.47343875805586 58.94438299791693, 269.59207134598836 42.66154434773653, 284.27765269611166 25.556341388588166 M239.3517939849999 77.41745396211294 C249.70358134832247 66.66792442037575, 259.2482301779517 56.5728067217008, 285.76317109946297 25.015189559524273 M243.99429507732435 76.34693801350912 C257.4649523248045 61.046072115234395, 270.4119002138148 45.975405981871575, 286.5657263781843 32.341187001580806 M244.48284807235046 77.2885609189423 C261.5621077525234 58.63633585828078, 277.81382154661634 40.60060331803572, 286.6541455250201 30.421823912674995 M248.95064079600849 76.2504790550321 C262.7438540347249 65.70182789776621, 273.8037954488115 50.8638816117093, 285.32970643232716 35.60251882062815 M249.19071513998784 78.87913728265461 C258.06850232140056 68.5355778795309, 264.9453605005247 61.232280568142656, 284.4769665692295 36.99658723311089 M256.14442066575344 77.95782797238697 C262.7058026975337 70.43019815406558, 269.83423344365605 60.74248867922237, 285.6597339187809 44.15935773425737 M255.96500348026808 77.31086740842927 C265.8019578377293 65.96706383191552, 276.0248553078064 55.446896643128845, 286.7761209954568 43.27993595623413 M259.5725986598282 79.6771343947693 C269.48105704804243 69.92216490109314, 273.5819146816641 61.69946686096375, 286.3808978108144 50.64172837166407 M259.94452276958515 78.82583647233687 C268.3986046350912 70.27962156824225, 274.2434541778474 61.60904796561807, 286.1513559800959 50.42801775811532 M267.5594998674638 78.14458463048356 C270.9798699272332 71.84545992376651, 275.92309826807457 67.41104706380167, 285.1456481976587 53.7076920411527 M265.9157563002951 76.99885382955688 C272.2847719785143 71.67787957908247, 278.030854025808 65.00248291594872, 286.6000923155028 55.1797044939339 M270.00833826192917 78.16207830872527 C276.0637051678437 71.95117867491189, 277.8031371202938 68.77197850711482, 285.6853240525829 59.58102337191876 M270.8143887487918 79.02512965615979 C275.30279734288644 72.76642813216483, 279.6285258159185 68.24654290032612, 286.0189521780717 62.144268839760386 M276.41921080440966 77.9498328391151 C279.99449294693585 74.8314420457825, 281.7014158129562 71.48494807532501, 286.39364976350817 68.1515537336504 M276.7923689631441 77.86731310930712 C280.06069102163025 73.35287850964261, 283.5457388833823 70.63015690873421, 284.8619935954795 68.47666681968029 M281.87264153782445 78.44411994586726 C282.89566237124524 77.28375693681346, 283.4713002115869 76.05017773134917, 285.71112712618094 74.10136761627928 M281.74768226791343 78.33520206953426 C283.47241741290236 76.81817393360691, 284.27044596017345 75.34508162318535, 285.99321281533815 73.65966892577545" style="stroke: rgb(34, 139, 230); stroke-width: 0.5; fill: none;"></path><path d="M0.37620937529265874 0.33014675193321696 C73.72806345173991 -2.1654089688415787, 147.91112037474477 -2.8438741558265948, 284.8798536542042 -0.13644990667808055 M-0.24147381042903657 0.3438087799734473 C113.65695724162372 1.4047996771713642, 227.31223626590545 0.8314962307773976, 285.6932010960441 -0.5757808541303276 M284.44819732010365 -0.06716127693653107 C282.76773514039814 20.27007512077689, 284.7085477281362 35.7384608104825, 286.64709992706776 76.16057948768139 M284.86990012973547 -0.05083753913640976 C284.90087193749844 25.231759353727103, 285.43825144074856 49.45769273340702, 285.89146246761084 76.78477404266596 M285.76548244233214 77.35548581514276 C176.84120919409384 77.47252449443444, 67.45740644085062 77.69603999568184, 0.9240502776402233 75.82704797122872 M285.23519150816304 76.72157853785842 C183.3498870817321 75.24210405171074, 81.5054213658114 75.21066706002868, -0.3855683537964224 76.84701789289039 M-0.8078289479017258 78.2888558357954 C-1.0306158459931611 59.03482642546295, -0.07762674458324903 36.8484697446227, 1.8963532000780106 -1.1346790343523026 M0.9766959175467491 77.08863589912653 C0.8778116694837809 54.90118675902485, 0.8771204940229654 30.79037488698959, -0.10032878071069717 -0.9705736860632896" style="stroke: rgb(52, 58, 64); stroke-width: 1; fill: none;"></path></g><g stroke-opacity="0.41" fill-opacity="0.41" transform="translate(44.5 31)"><text x="0" y="26" font-family="Helvetica" font-size="28px" fill="#000000">Production broker</text></g><g stroke-opacity="0.41" fill-opacity="0.41" transform="translate(440.5 10.5)"><path d="M0 0 C0 0, 0 0, 0 0 M0 0 C0 0, 0 0, 0 0 M0.5306636713771274 6.0462193325656575 C0.8942145002731415 4.9468991904780095, 3.5485704519178407 2.6595227674452597, 4.969555767955726 0.7658294301328473 M-0.5483314953418323 6.670526641656749 C1.6145884019020993 4.208280499601185, 3.712619944489698 1.733890578736578, 5.08998558330769 0.4334462847409063 M0.4381232568155633 13.627908337533057 C4.105679318407635 8.04079155983554, 6.519290655842156 3.165332243987618, 10.654268045675886 -0.9285562817856907 M0.14717670465816135 12.546889147579252 C3.485401676374158 7.574329420509393, 7.3690462443021865 2.3739129682713185, 10.805753610980641 -0.5688334559008716 M-0.36273140744774146 18.752547970880443 C6.322113477595284 10.38877143818391, 12.002504351312002 4.30677975704295, 16.7400368298436 1.355778717149513 M-1.1256382829090814 18.47476257653969 C3.6014738424128083 14.394835833021009, 7.882182750573474 9.687553955080498, 16.47490658192285 1.2535813345503977 M0.5815498383901332 25.952606117068886 C8.079607387904131 16.5492299831554, 13.870898301206093 9.993196304924748, 22.465604333484436 -1.0159965777606246 M0.6225480923614715 24.979323567538618 C6.076594079044774 17.908034670474503, 10.786752281383105 11.550765759445172, 20.593280734771753 0.05156996233160527 M-1.5564593290398463 29.292223391819945 C7.78888670084833 23.258626376471298, 14.64591288235307 13.98541578799118, 26.972406814482422 -1.0140818847331463 M0.5253863456239358 30.064785087246648 C8.07905640428432 20.176393585620886, 18.441136963640133 10.5321660265949, 26.252903445300074 -0.16121568586558688 M-1.2356901151221713 36.32308669928585 C7.635832701111685 26.036813158601788, 16.749693613462348 17.320742853889854, 30.74663459644357 -0.5055623798385973 M-0.11958500194367971 37.83300493825351 C7.841698625308085 27.088945816547017, 16.559945415141982 18.02115313626138, 32.20034101367632 -0.6430961376742239 M-0.1885112252413279 42.49532044361882 C11.589623317731883 29.309628223043088, 23.24698880173971 14.765988353915759, 38.62680438701187 -0.6902474182564298 M0.059391320836638783 42.99912217314892 C14.257467304576839 26.265125240069572, 28.84945022275083 11.444201202700448, 37.50714237410699 0.10472765016374197 M-1.1389059517533369 49.17161526963942 C11.466216747727326 35.25885320518897, 26.195515230976792 19.44256536942068, 41.30223150979333 -0.38834717605719504 M0.41511424817137055 49.28068583519094 C10.02822110257078 37.89651082639225, 19.170314461689653 28.25569244296707, 42.69331132676058 0.4254976500152594 M1.0399410289478155 54.094261001277076 C11.694190760128832 42.187141982114476, 25.096502839846636 27.644544100264174, 46.314557672431945 1.7472039915796564 M0.7488375802290292 54.2396878967465 C15.96545893145753 34.96131459686768, 31.9544965950698 16.695917828884035, 48.35383430584359 -0.330424594861622 M-1.672828575493881 61.17282328335236 C15.359985275218975 45.00223824878475, 27.319635995481526 27.59270738877042, 51.556223198533715 0.9430709085835822 M-0.06320224878389524 61.44523990107368 C15.887323673935722 42.43089211862948, 33.883776611551596 21.52654783032868, 52.28215261152452 0.28176538790005523 M-1.6033334704629212 66.95117652001748 C21.11163377301109 43.27273546119993, 40.73620142500505 19.20010771738496, 56.27199479574264 0.09319421977512476 M0.39762703231060215 67.31560590076218 C21.976563108013895 42.59938774502892, 42.256290466030705 18.576468484465245, 58.09669017800988 -0.03600835844166639 M-1.1011298613438 74.62163261542467 C22.930263934725186 46.11702515004522, 46.41745033530835 19.699204246469883, 62.557437787664725 -0.5288862509162655 M-0.0008235553094735337 73.50733119840173 C21.299018683420954 47.42619276608307, 41.88826365399758 23.259576756125, 64.36432580546816 -0.23737886151983645 M3.0547295174884894 78.52965055394894 C21.004436760789538 54.26570583167303, 41.89210090700641 30.256124538363466, 70.36044388194397 -1.4823548586700426 M1.2774567305433848 77.79495192680484 C24.41279312516337 49.5228129578222, 49.095927654737565 23.47142897434898, 69.22692092810586 0.23114042192359108 M7.842049576611473 79.39557891885141 C20.53483230867286 60.18583618009891, 38.186506366951654 43.32771036330995, 74.97970340218636 1.5532032204432653 M5.2479925270092025 77.66773756767014 C21.27515722478681 61.14962312057106, 36.17374148174657 45.342035581115695, 73.52479184609147 -0.4825210357444121 M10.404607436697624 79.38529959562098 C30.23705800942833 55.569741376357314, 51.84776199265037 34.596999582095314, 78.06623305603591 -0.43452136875582426 M11.439936931322954 77.77533465492402 C26.434752389504006 60.467187593067635, 39.85301627879937 43.91043574251684, 79.42323749363152 -0.4733141912658283 M16.83091980539092 80.04900322907812 C35.89296202941074 56.720916005490075, 50.967572869033575 38.43172731399689, 85.12184816709862 -0.07823880233783598 M16.299838877691116 78.24154223182447 C37.37031797230038 55.07568381906593, 58.80563310635706 29.74458350409315, 85.53601167089448 0.008252927726317694 M23.060302006297377 77.31647964315238 C36.49926132053883 60.92940412453929, 51.639444084464785 44.085588685153866, 88.50069044301847 0.15661656451776196 M21.722702166282204 78.0346022707385 C35.91108054098136 61.38367754120693, 48.79368032169832 46.62158740390967, 89.55185081208685 0.7187918644900577 M25.884395747060992 79.28479448266421 C55.533888009299154 46.881291603850116, 81.56240069937441 17.524048149084237, 96.90770020740152 1.6842095557404377 M27.678513231302716 79.1298763149241 C48.80025077424695 53.44454015052581, 70.59021792455539 28.276981722467504, 95.35794621737719 -0.49064290860764004 M32.44564135128776 75.93061257154315 C53.19114089049975 54.09097671107493, 74.24951809444565 31.60860181433261, 102.40014416789168 -0.4140191838492697 M33.33571337292115 78.5971688367483 C47.726361253054755 61.27992178237355, 61.53495524011891 45.81590873416702, 99.6664718209719 0.48812265169126334 M39.23880552662169 76.89787455460969 C52.84908170755395 60.6884588412851, 68.79334884420727 39.955485695216204, 105.88608764809501 0.32297016967809355 M37.687726525344004 78.76340387946907 C62.12376126550329 50.283391027766605, 86.14392377612734 22.389854648956785, 107.13805642303956 0.10770551775372184 M45.60945359666877 77.2101202557933 C63.408816474838204 52.43182847593327, 85.83635450046415 29.093846146205593, 112.1259223556555 -0.4765067388569335 M44.67643148873978 77.2999484154534 C59.05856910030442 58.36475782061133, 76.23506938933308 40.8161385570549, 111.00831145778663 -0.6721577671622256 M48.75547726907301 79.05816531991454 C72.16859604301303 51.247749419860455, 96.87630611167063 24.31448914440618, 114.57477958518865 0.4501744946978974 M47.81868969731498 77.38528898795934 C69.73900195668176 54.31972376811648, 88.80410359828727 31.625869881597666, 115.55524419639113 0.4574218495331692 M53.22556686744042 77.51242457090282 C74.66780258282424 58.17827245272182, 90.51695652967904 36.54001364529648, 121.66435313130995 0.01407577449478481 M55.329817451238114 77.79235506935382 C77.85656917855725 52.24375743674311, 100.55612764612152 25.799282849923586, 122.00608066003105 -0.456385329570395 M57.92073909941496 78.31058865357875 C73.44885081981964 59.91816108592927, 88.66265150522301 45.40957229247869, 127.0847222016634 -1.211174754645704 M58.75011368471564 79.05119570289492 C86.57407368482913 46.33746146792788, 112.96081148658848 15.073193867096634, 126.44408853291287 0.761000988785149 M65.59280928860267 79.56994739187174 C92.05998206871287 47.195174722673386, 118.00911775257413 18.35330777065446, 130.626764619855 -0.5223497687941148 M64.0683321979161 77.53630286094956 C87.33298549035213 54.11476244123942, 106.64216379703453 31.53916784916536, 132.27599036520513 -0.7463959730332448 M69.84591914264755 77.57506643060233 C84.61038488962132 59.91086049290409, 100.69464361713669 42.892902635498864, 137.1836845935288 0.7010538768700627 M70.34820942504601 77.6292880867758 C92.63805191235234 53.35356327666941, 113.5522661762532 28.98142998314985, 136.85849134111433 1.2975665782324342 M76.63500898515555 76.49011059370001 C98.14677202220221 49.03293287129513, 122.98013998180315 22.03547399027058, 142.24948494629072 -1.2908614937236536 M74.8519366662738 77.8062058527406 C97.39156108336572 52.829795815892005, 119.0909486684312 28.82729913412075, 142.62175151080893 0.38847436494920373 M79.26734552377073 78.14652052598531 C100.08228868158551 56.65183313489419, 115.65558059660816 37.86602975906816, 146.9204948857848 1.1692822642452256 M79.66668785580603 78.80023020210201 C97.93664483674317 56.16657217686432, 115.02340064288771 35.93061591008469, 147.69591355849545 -0.5959673196249469 M87.90099408209907 75.75533605138766 C112.75969507816089 46.4894260259823, 140.4214845679394 16.010663055746015, 155.39384223561706 0.8784624747061827 M86.8280917938112 77.68897810722696 C110.5280083235401 50.83315057214034, 132.31039240799362 25.052002543172335, 153.03457503434242 0.6913897468769648 M92.54634636778457 79.69487281472765 C114.97942444038264 49.20561755363413, 140.93895440667697 19.838014743313543, 157.96898120343144 1.5509322824797493 M90.94675991449577 78.05718611137353 C107.28633691479459 58.573227579565284, 123.84809412445719 40.50353598615228, 159.04131612255628 0.2298133577129704 M95.9085336754427 79.97775522015745 C109.8009724127432 61.926166121511216, 127.02180065468174 41.508122521576084, 164.546164612834 -0.4694559885046061 M95.67569948903775 78.83874326713139 C118.68829932149825 52.46477824966006, 141.1096490238173 24.70401717487323, 164.69317187330557 -0.28198576474996173 M103.669249799689 76.26504517182936 C120.29160117281262 54.77526644254375, 140.80799377644342 30.3194259721257, 167.62797167146869 1.578425806573648 M101.61713653861517 78.70581987709035 C119.39159097773376 58.361076773722274, 137.1211902336231 38.73131530430624, 170.16715997079677 0.7368226727462002 M106.76857394816746 79.88037081456386 C127.34301329471216 53.6456427056542, 147.83135013512504 28.260185131112557, 175.81778020294155 -1.4146950083560057 M106.22933874743451 78.45799623450839 C121.15931873865395 62.76796124884501, 135.6346932190262 45.2828569445327, 175.9637529651984 -1.1634881074315615 M114.24738394448407 76.27695947229043 C132.27873343084605 53.108350837490065, 155.8500869729276 29.04027391356447, 180.82129441489656 -0.6408152884730782 M112.29402866566427 77.86429556175247 C128.84484823122216 56.76884612422551, 148.55849695774327 37.55379091024574, 179.53340604071695 -0.30052531202525756 M116.24888399628284 78.82531428982963 C133.2253484942349 58.695521232154675, 150.32356152403506 41.01177038687236, 186.94501713093976 0.3376672901519555 M116.54291147751096 77.82586065208068 C134.65867460599017 56.182112344667104, 154.1733681999809 34.9565086595718, 186.40002924752096 -0.772453218667863 M121.51707692716977 78.52553759111089 C150.4115773228064 50.14540072518673, 174.8582538234337 19.786521138614766, 190.0977775587151 -0.6243691276604295 M122.78114723314306 78.46327722785992 C136.56414213742687 61.7290330733035, 150.93440054094322 44.06210380381338, 190.78751526981688 -0.2953165341014028 M128.39829194478887 77.79500752095478 C147.6392713847814 53.44317026279038, 171.10986363492316 31.70535434739476, 195.2892035218286 1.4575527820192917 M128.5138786167671 77.27925058234828 C144.65056401391539 59.1541051931032, 159.315780102728 40.727031853854044, 196.7432116577732 -0.11571703595885197 M134.3396568727461 76.18070140329075 C148.4811339838878 57.85657064571001, 165.94054918606764 42.23674792370257, 199.63124922792423 0.4851861640116084 M134.06970317855155 77.24592893791271 C149.31559879489473 59.726815186815436, 165.11918186119476 39.81059063269862, 200.76444859559643 -0.8481369309822213 M138.8906259186855 80.1468723829393 C157.00310152640017 53.68774828958623, 176.19295706690428 33.48841749161598, 205.83666750060803 0.9898833422460029 M139.2272011027029 78.9675800878112 C161.80399824314895 50.54285917721752, 186.51561755610123 24.386337663863735, 206.9220111334551 -0.38761549680452845 M145.20145190621304 76.78737278382997 C161.5086243564005 56.669887327037216, 179.00411771600523 36.65531312228779, 213.22053754752397 -0.07972753845699287 M144.3384074393897 78.76791475441078 C160.45731362043807 58.839640060268195, 177.79326111779284 40.95040830363294, 211.48666695555568 0.25292755983225845 M151.02471404297273 79.61333075078322 C173.96507143890852 51.77455831937901, 195.5538121898975 23.035962228899187, 219.1987371922781 0.35458084583210336 M148.9553398728184 78.85276323096944 C167.96561558102277 57.619478337162036, 186.1867976800076 36.704083370508286, 218.0526386120667 -0.9699845387048782 M154.21379015257062 78.26547360772855 C168.4699876208934 60.137036755686594, 185.87598031618307 45.38726270362791, 222.28947064251437 1.2883116399337808 M154.95347095315756 77.39739873985417 C176.7501764025081 50.94022741419728, 199.28765487913776 25.338501372592546, 222.16413128719464 -0.9677089991579493 M159.72438444265063 76.3018044994865 C182.1860594854316 51.688925679718224, 202.99631861915742 26.73826851083639, 227.6117407218388 -0.6534328322224354 M159.1582558646136 78.70921407432299 C174.89625628576985 59.97330409927527, 190.3162078677314 43.145969516415136, 228.438805031108 0.5678399008400703 M165.11299973681884 76.90992574998651 C187.39246156205036 49.81459445866659, 212.48851048642186 22.457455919192633, 233.8868766378954 -1.4282744258160562 M166.46860465735512 77.31504495674287 C190.21115145359795 48.953938196829, 214.40762424072952 20.88900585263881, 233.19430252801328 -0.6731325454528303 M171.53846524271916 76.69471550404914 C195.4580595363764 48.98269449928408, 223.95250071463087 17.82264331001099, 238.28094718529962 0.8904737633051667 M170.4834100155885 78.12384668037184 C188.2320237453226 59.22231891638624, 203.67900154216537 38.56194249448192, 238.91566229908847 1.2237314645530972 M177.26040878395764 79.39065108560385 C192.25800220279365 57.73427682124695, 210.69395797430298 37.322920735969575, 242.68658365866702 0.12793613929346748 M176.62501948948233 78.51401746757688 C191.19047972537638 59.7424964351255, 205.02469293750565 42.909953712374126, 244.1621416155116 0.786070983447587 M180.64078456817828 77.64948563947117 C196.07340678942967 60.17365881775123, 212.38362914276337 43.26088116616833, 248.00480276564156 0.021803346969377913 M180.76576326324306 78.49607511161601 C202.32447760005823 53.15387937880412, 224.92189504258164 26.94211106796032, 249.47403941148912 -0.45606494551132926 M185.64234541898708 78.75257148958056 C200.7240836379029 61.6827092171576, 216.58896058921874 41.323500498539474, 254.98741982982926 0.6893652102623662 M186.35142638703923 76.7999803348562 C206.68963547659527 53.03219797338338, 228.93905200336238 30.390429556773313, 253.84010948718958 0.8718156500433167 M192.83017054402802 78.39853678075256 C205.36184205135956 60.21766355670373, 221.2375440201734 41.30362426550757, 259.2385765588741 0.4151873739929499 M191.0277765450773 77.03781343055549 C208.82675371636972 59.00349084480342, 222.7925018406204 41.21111376570462, 259.32408827681945 0.15132431336954255 M196.87013776690716 78.41560883691668 C214.32312672428745 57.53058637265249, 235.13989290662232 37.74610105608549, 264.71321327638213 1.3634346620906683 M197.76403628752584 77.79109762108087 C216.20291255739986 57.376734344432414, 233.11743407503343 36.79251596650596, 264.18816708054726 0.8585155168343874 M201.53045129526842 76.54929080289335 C223.22858639036758 50.85725817974145, 245.72951913487304 26.154375432449754, 270.71859668999736 -0.6344522806240604 M203.47941079859126 78.7734756996903 C224.41431795206245 53.28995291234594, 246.48577957032336 28.22359259970994, 269.51951983257953 0.7265633036957695 M208.52405492372736 76.92939458283489 C229.31359354169825 52.25843757659806, 248.75254906426153 31.069025359626906, 277.4127921233257 1.6325663697782886 M207.51050109945163 77.67274296897357 C226.7404423770083 56.03134717567076, 245.504295751884 34.88413820881224, 276.3537753330847 -0.16691535367928623 M211.79045494689944 76.08416958089352 C238.30451842821248 49.72352575011955, 264.31009182956734 18.221146890560497, 280.80619128401116 0.5428062581182758 M213.5181269612849 78.53997598152041 C236.43437695931615 51.16392511505802, 260.0569646687552 23.564634452208473, 280.30154501626924 0.7628160879672805 M219.77754307242867 76.95443144188974 C234.91260654679724 63.41668424367347, 246.48590022466183 43.594097326547875, 285.6039254666693 0.10889178854810666 M217.3941498182976 78.17866128058884 C241.13342880284765 51.73552859822647, 264.345526447814 24.77077519219955, 286.0158361533112 1.4496466812251754 M224.28400962392107 79.36059498975303 C246.51482358060403 54.43166823504998, 264.7288647792958 30.9883852518154, 285.58315720500104 8.784271087224937 M223.7288859706582 76.98672833854582 C237.87542986199614 62.56766459279763, 252.07966730366405 45.0982731685374, 285.1943435044741 6.358132950689054 M227.4608713090206 77.79035086930396 C250.6665657996033 54.84204848986366, 268.3005572160843 30.43922531041372, 284.90061502554596 11.590766916518874 M228.43763435257324 79.11922619864943 C240.18273745490498 65.05560934588505, 251.99978257222224 50.62601519298423, 285.5119840728599 12.986049807166523 M235.30994345133334 79.11098890447194 C250.50264137306016 60.42634366649452, 264.8699225932739 42.63678026362742, 283.972940635948 19.00044492125039 M233.88414876421123 78.57564683326656 C248.19643261157722 62.52075468258215, 262.50390558529784 46.814112662390414, 286.1262442926751 19.12125879391556 M240.6853677585032 76.35707474007754 C249.52554826537684 66.17151278528789, 257.608625512379 55.985990362174206, 285.5675743598132 23.364969925348973 M239.5071656397786 77.3626017856553 C250.5987834695828 66.63307027024773, 261.3497767729705 53.67621438294778, 285.3930654640882 25.64606438330314 M244.79208455413624 78.4427732000502 C252.59689120907365 68.53474139148882, 261.677774404967 58.05041565957922, 285.8042829047856 32.70328257363519 M244.94387627944394 77.58114552818259 C258.04917526488475 62.79339136361919, 272.3128490834649 45.846378762738155, 285.4933715213058 30.699890618587347 M248.1873605458764 79.94952492921051 C264.8178286123999 60.541179892352716, 276.67681428199535 44.845683804526054, 286.9975725654806 37.16863227026127 M250.65645461741366 77.58945210410651 C260.8929531794407 66.2466189332864, 272.59613217391416 53.65244246655989, 284.9004822355057 36.521314052357894 M256.27926105732973 78.83836975148786 C263.62635799094915 67.5569636516388, 270.4535802644344 59.950300784218605, 283.9385121365138 43.06270591937938 M255.0555294538563 78.09013848579396 C264.97723964255533 67.89185243979335, 274.0758258948435 56.96586472153935, 286.2869361278661 43.83719248720446 M262.3281777961402 78.23762331170283 C265.5319609574353 72.99438321700204, 273.9826226141498 63.624905367359275, 286.17655582552914 50.84975666581013 M261.12671222297837 78.29294121650301 C269.22753298351614 67.05068084879768, 278.8519734987467 57.90944373919394, 286.43131338259343 50.25179371638515 M264.94530108591385 76.1552004337849 C268.61068388572875 73.89587012840917, 274.2047141294181 66.72140490088742, 286.8619564561326 53.62363683348296 M265.55406922494836 78.00203976860064 C271.65032320875224 73.11623617018336, 274.72641096161095 67.1099299694349, 286.6856490498561 55.0888284622669 M271.09414763429464 79.26629176255456 C275.7643577778242 71.2653194096127, 284.07369013173957 65.59719228206171, 285.7472932359683 62.895474567218386 M271.34664939397277 77.77873318534485 C276.3347238723775 73.13322519198245, 279.04960435358873 68.99765517066915, 285.60196081386084 61.554127018107735 M277.35478429549124 77.01782083880767 C277.9494254141549 74.73633415157659, 282.0208628411292 72.30627368786864, 285.8264068039939 67.36665502079185 M276.9471847429567 77.27982044496252 C280.315323460926 74.58220518373575, 282.5662624387402 70.87431743289652, 285.4167620074809 67.70268254075553 M281.96371623773297 77.91095922882695 C283.75357309499356 76.64128885822126, 285.6293446331059 74.46232231126484, 285.48026858043056 73.52850569970742 M281.6144799025001 78.12382120373687 C283.0984087578042 76.52228345525623, 284.56572273862525 74.63462379282927, 285.8519003439335 73.7653617508693" style="stroke: rgb(34, 139, 230); stroke-width: 0.5; fill: none;"></path><path d="M-0.9701239575515388 0.4742210296636223 C86.33377138928302 -0.7194567868109596, 173.6584766017792 -0.9455541765375983, 284.8072161140637 -0.06244603209441899 M-0.24329963584586972 0.17172608401986952 C97.45943575345986 -1.9354413762113611, 195.68008339987617 -0.6693875648166699, 284.7327771723559 -0.4981532073819934 M285.502974845469 -0.9012343659996986 C285.3810910636559 30.423118687793615, 283.6756283694878 60.53875439539552, 284.1099754348397 78.62421514838934 M285.83480812236667 -0.9771252386271954 C283.86969170760364 18.224464182183148, 285.4717688341066 35.373735029995444, 285.92192329093814 77.15917687490582 M285.76417072397845 77.7343931642347 C211.20355826982504 74.27972291339637, 134.61435706805196 76.60233363536406, -1.4887458226924535 75.94572081255967 M285.67408433762864 77.2437016717331 C205.58719573308815 77.11291001070265, 126.53047647354889 75.83711133753923, -0.43181880576869835 76.71487473915693 M-0.9659577831625938 77.25184895843267 C1.4369339441880584 54.79375264234841, -1.188954165019095 35.57176319882274, 1.8641415610909462 -0.022704578936100006 M0.46351195499300957 77.18557946756482 C-0.031598487906157935 53.63420178629458, -0.502877989821136 31.29637467265129, 0.4633697383105755 -0.6793620102107525" style="stroke: rgb(52, 58, 64); stroke-width: 1; fill: none;"></path></g><g stroke-opacity="0.41" fill-opacity="0.41" transform="translate(496.5 32.5)"><text x="0" y="26" font-family="Helvetica" font-size="28px" fill="#000000">Staging broker</text></g><g stroke-opacity="0.41" fill-opacity="0.41" transform="translate(267 103)"><path d="M0.1109741166358944 88.87233888220283 C0.1109741166358944 88.87233888220283, 0.1109741166358944 88.87233888220283, 0.1109741166358944 88.87233888220283 M0.1109741166358944 88.87233888220283 C0.1109741166358944 88.87233888220283, 0.1109741166358944 88.87233888220283, 0.1109741166358944 88.87233888220283 M4.225230257444181 92.41016022142239 C11.237739094887399 79.88852613418192, 20.454491783919845 72.40012665124937, 29.269135131952808 62.15834040630301 M2.2220467100367927 90.73714331936307 C10.857067450147447 82.33996571636152, 20.564327166420636 72.02342934156763, 29.796101402012155 61.34716244104942 M6.930944636913765 92.22861997973366 C18.825945702037526 78.70688195261847, 36.73707685570478 62.07829128515854, 58.730775498373035 32.696099038078295 M6.408503901663053 93.4918886926417 C21.3664804085838 76.93997057318387, 36.66306852794645 59.40250906904116, 59.314591605735544 32.083417533739315 M8.481233227138937 95.86890510195911 C25.442930119639207 76.2546663191513, 40.73680978888544 59.88690929312589, 89.62444558891436 4.740670719169977 M8.946947260832012 98.35102550039113 C27.007175140737235 75.60979820796203, 46.87602321779687 52.09592170369909, 88.88519438880463 4.345990222864749 M12.8012511954757 99.73590306827819 C28.30978599133283 78.51015313587871, 48.97134886504787 58.931408958647594, 97.499553998284 0.09775989800008489 M11.962116915837171 99.88509063685333 C44.8744533754958 61.55976784316523, 78.33134124704581 22.739526120586092, 96.97174705686416 2.3288906209102507 M15.808914122308565 102.91269259953867 C46.072491235614436 64.26244661958869, 78.60075012073642 29.013209902733962, 100.9481656475912 5.690429968956003 M14.692607158000541 103.65921848693858 C43.03065746324532 70.50507899711047, 69.57883383899576 38.47330998895704, 98.57683699196085 5.284894036325703 M17.789134117012516 106.39170533636559 C51.86782640335311 67.11885082876819, 84.7018133486475 28.412060323282162, 100.902102378135 6.449998430880562 M17.240102557634607 106.08930260533441 C40.15945023365644 79.71592830116063, 62.758751732798366 53.56575036749102, 101.91390224633125 7.041436132016436 M20.487760788962568 108.07943541938388 C51.615969152193976 72.18352579868802, 78.50790059789593 39.00182688132382, 105.5995922702999 11.26423150462152 M21.038318935051883 108.07170529672825 C49.337964377409264 74.95225796734672, 77.43654858242598 42.99790060344206, 104.74888086129735 10.573807542892709 M24.8615812475337 109.04643948921859 C42.84071885521742 88.42849067919069, 58.366622759171314 68.4781022126965, 106.89585993346087 11.680248330803884 M23.97800336056485 109.85825761580764 C47.771624226623345 81.57062572850558, 69.98021684752689 55.590342519475286, 108.08580115717164 13.333058073642029 M24.82832010210094 111.7773366864947 C53.065066724436164 82.41572327114685, 83.36377698842087 46.351756426620966, 109.35706747699295 16.909230550052655 M27.53193415448603 113.9312593672601 C57.46613752128003 78.7062366322244, 89.0835436429602 42.07868876584199, 110.63572270426666 16.875706278951895 M28.36058043304876 115.17551823206 C44.95957540499442 94.76588745324901, 65.64369892539753 73.60998904562683, 116.01031451027113 20.07642230299284 M29.223861858137404 116.63318868599586 C46.7452324312182 96.15708979029243, 65.27295322518725 74.14489257817678, 113.94173632289487 17.738739463509816 M33.86007990773319 117.79430910609392 C57.15956113605819 88.8954015165266, 84.4085250353211 62.034624489945244, 117.4375791136799 21.22583981047218 M32.37774534981249 120.0228637162569 C61.891791796067835 85.94094565154484, 89.72928384564231 51.970358592219455, 116.84790505437829 21.069323262226035 M35.971296606538694 120.61522552944427 C58.71666429535178 98.066868809656, 77.97935635018808 71.45986271613458, 120.14995395457524 22.551433052670177 M35.30639767083327 121.2787000929535 C69.90290234533455 83.78045864252967, 103.52896535290934 44.81489939169488, 119.24850027701038 24.48096331934255 M37.95570513884031 126.279136642736 C67.39454839187157 93.72346004490961, 92.74550873729632 60.40841747299055, 124.4012921133417 27.17534325043458 M37.060722141512265 124.55487262077312 C63.53453436835255 93.47434115561931, 89.30781126822305 63.14253549467255, 123.2766475321132 27.45676276976961 M40.785717614013016 126.09097408659414 C72.27867242585334 90.60774404734619, 102.4132872387563 56.30915282565017, 124.56244319935425 30.379064544390374 M41.89865333216196 126.6110248544033 C68.7185868047461 96.01131514813218, 96.79221447763955 64.4011844490485, 125.05356263999923 29.205583918194705 M44.89468364143182 130.26973200164372 C64.17859396490374 106.63660721773061, 85.6468150999475 81.63176838815141, 130.2151943219879 30.60815357516259 M44.410157063094864 129.68726909853154 C72.4186440009584 97.69027251196673, 98.21310162407948 66.67316111778004, 129.15749267098096 32.29175781930536 M47.270831301481195 134.95317660873246 C70.10601415041207 106.6812014306349, 90.99345838211013 79.24251726880357, 131.24621106162712 36.476939063598984 M45.98617137563295 133.1338959880681 C68.99731017347708 107.08871765695542, 91.93117975619404 80.18182153598008, 131.09265691638038 36.264793858011835 M49.831503261517184 137.4290078880398 C67.7394265763105 116.32870999786596, 84.2379167595546 96.57078509936969, 134.22127358562796 37.999683489879 M48.56784264806976 135.2675361672549 C80.22259025320312 100.58172128984981, 111.84858346246423 64.29173230313762, 135.038483004491 37.51554142855607 M53.23680260192427 138.91311706041358 C73.55938384347442 115.94764490639339, 93.76383852410677 94.83563581102126, 136.19892247437488 41.36884057485043 M51.83517142172727 138.77441777100228 C75.16693649716986 112.37189555890967, 97.00789598082983 84.90589001993247, 137.03825272663485 40.679447415848365 M57.26382893207743 139.78074826647875 C80.08092153736175 113.43704725366501, 101.60200942915202 88.72831796566092, 141.10469483724287 44.18621695913826 M54.95624851691797 140.56652810399768 C74.79239478966207 119.421341163332, 92.2141765293144 97.52134816216218, 140.74833815312437 44.49271787457619 M57.9006193613517 142.57120814686033 C80.80724678165224 119.70328727284566, 102.83142084945408 91.46483482843067, 144.825065283607 46.4676817833675 M59.05619600395438 143.41132322092864 C86.97139854981202 111.7080745967265, 114.75572871153118 78.85288861644291, 143.9071426042721 45.42202760942708 M61.096148499122066 146.23786584218334 C84.04296791707367 118.76289171680945, 108.7267109402407 90.15098975849409, 144.3013868938517 49.64787626838593 M62.342167203149 146.80672792648267 C82.0719532778952 123.73730218181643, 101.38770175207638 100.94591673783027, 144.80404162140007 49.29422975531129 M64.51032845476352 148.39815299307273 C88.45224866307338 122.29089193626228, 110.73328570515804 95.45991050461865, 149.904127335333 51.81137539437297 M65.22834668481433 149.8561357753472 C83.2870558011889 127.59430097549068, 101.32292225818351 105.63458072822662, 148.0286190828017 53.15251745647076 M66.60794980866055 152.33827332037632 C98.80583800656994 114.56667008291163, 129.7216254408407 81.23513030428299, 151.24651468843538 54.47094538217644 M66.80489124027233 152.8981186524326 C92.21815482715165 122.73018087246861, 117.77940446224827 94.09762560489122, 151.65931302979905 54.65968134781579 M71.0329177281692 154.24436430427352 C98.03455101279442 121.32488095979005, 130.79460768318222 84.78978666065284, 153.55877356253387 57.79870537242131 M70.58716599781656 155.36258845198074 C94.822081964925 126.41928897417368, 119.40971420705269 96.70824307869876, 155.0126517827046 57.95427123403387 M72.42189779367393 157.98075466561212 C90.58577626415905 137.93487454361377, 110.94018876909543 116.12912459320435, 158.78206606700346 59.63083700573257 M73.70439024876899 157.17405455890193 C97.60034437310826 127.2672772349152, 124.44202562880179 96.28215522696507, 157.11219491183087 59.28030566981248 M76.77855211454977 158.32112604501717 C98.52425556116125 136.0586268231773, 123.7349726062123 106.71205071738962, 158.66243278222862 62.47229400295803 M76.64887356344212 160.6077855278837 C97.87358516668175 135.99217027359873, 118.83615745877137 111.61112357224442, 159.15747420849982 62.61698154006192 M78.5674803001717 163.9532225831136 C97.67366278486745 139.52656619664094, 117.29464371601645 118.6741098880332, 163.1250288755654 64.7279638442771 M79.74495676214846 161.91951866361347 C105.40942270173724 133.9671256889696, 129.95102374132273 103.64466855287549, 162.273229801005 65.53483573902412 M82.46421945991469 163.7288509205264 C109.09135510781377 133.03417119461088, 138.65280826443586 98.6501530922153, 166.08776992739823 67.48092525053761 M82.27401191520048 166.2204600207788 C115.93662373572955 128.75121032179626, 147.75344087189194 89.98833924257548, 166.69805598066833 68.5990026516094 M85.1052442031538 168.91388019788067 C111.32969570344156 133.2495651190286, 143.18421210970732 101.3792178626682, 169.83556804710219 69.7236098623645 M85.59944234291072 168.3522844040672 C109.3945922419 140.09187982902745, 135.23864490272575 111.50649989368844, 169.5336373178024 71.2253758325052 M88.18190761027351 172.19295163602408 C111.27849077413296 147.48655783279327, 130.1008627106486 120.19759268409956, 170.11427284405224 75.36251182038279 M87.63562358660117 170.5168449483889 C116.9451282434054 138.06380197009165, 145.19430551060785 104.02478347202741, 171.21368963271968 73.31031758639904 M90.81467734862981 174.90064021513615 C110.8123785953205 151.93451205132416, 128.10888544179002 130.0170026157939, 173.22461239863287 76.22289734544029 M90.59713952456532 174.1323347979859 C113.26961529695726 147.67649517902663, 135.96395206563875 121.68638277642626, 173.97290096674215 76.86036854820122 M95.36678149860721 177.7997121560646 C125.6167657387868 143.12976674026984, 156.58171961623543 105.2987664301347, 176.39642937820014 79.27996641771641 M94.18742819812518 177.2365445877684 C121.8112801013146 144.8535443738815, 150.2345614484295 113.31967603373205, 177.59616769816336 79.84840936215367 M95.8184446695807 180.31228659943446 C118.70916574724285 152.86885243601063, 144.4482528269777 124.01090329668999, 181.60232686313844 81.43711025805892 M97.34801792759323 178.34302412242397 C129.0609169637856 142.61969302896833, 160.4726765572898 105.3314145884765, 180.6072403683052 83.61691816316666 M125.75924915953608 152.5814523967371 C137.3386492785953 136.19357399065686, 151.6298433859301 121.76238950726811, 183.9319044628229 84.75707300709286 M125.6258884718928 151.12769916750645 C146.94064100232367 127.90456987307333, 165.88331561664305 105.03701915608522, 184.01795979748033 84.7341322559277 M155.44287438923752 122.5505464777311 C164.62498369722724 114.26672437764796, 173.07054636211143 104.84518870623, 184.6856992866284 87.46666130544318 M155.6032104627255 122.13314981683695 C167.294503668399 110.94156157225257, 178.35323479820505 97.275847331425, 185.7971980560011 88.62375769512428" style="stroke: rgb(64, 192, 87); stroke-width: 0.5; fill: none;"></path><path d="M94.47986229509115 -0.5671536549925804 C116.21989107806235 23.2452498004213, 140.0752761137113 43.041660514883695, 185.36345275491476 87.22793249040842 M93.92523290589452 0.9176004342734814 C123.47841482903809 29.77913214128465, 155.23824685323984 58.48496086273343, 186.37897028401494 89.27457968518138 M186.72631629556417 90.01390317827463 C154.28140074931085 119.4932053211704, 126.2104800133407 147.1894090506807, 93.03699263185263 175.6713321581483 M186.12086309865117 88.18263499066234 C160.26294712983074 115.52820084672422, 132.41075805425646 141.29617408197373, 94.61209513619542 177.44431928917766 M95.57228048890829 176.55148009210825 C69.6452675910294 152.00081556849182, 42.33708562940358 128.6364893566817, 0.9992516860365868 87.87813667207956 M94.11689688637853 177.72960237786174 C72.71879476875067 158.35728848718108, 51.426060452014205 136.65088136635723, -0.5017152838408947 88.70153371617198 M1.0761044844985008 89.63957122713327 C36.23596935395152 55.260811237692835, 69.00262325752527 22.33515158228576, 94.45701702684164 0.6689026728272438 M-0.8091999106109142 88.11111490055919 C32.09159900765866 58.61926037088036, 62.186174082718786 29.324853890165684, 94.30328609421849 -0.07694597914814949" style="stroke: rgb(0, 0, 0); stroke-width: 1; fill: none;"></path></g><g stroke-opacity="0.49" fill-opacity="0.49" transform="translate(292 171.5)"><text x="0" y="26" font-family="Helvetica" font-size="28px" fill="#000000">mqtt-mirror</text></g><g><g stroke-opacity="0.41" fill-opacity="0.41" transform="translate(244 100)"><path d="M29.720181040793122 40.838486707956285 C37.85442843424111 46.32860047003401, 48.1687901821784 51.99476922634359, 54.62780215032399 52.63759828917682 M27.999511999405385 42.42318988051334 C36.123434944574136 44.1723520341195, 44.28183821913002 47.47546278888893, 56.079254186712205 53.678846784867346" style="stroke: rgb(24, 100, 171); stroke-width: 1; fill: none;"></path></g><g stroke-opacity="0.41" fill-opacity="0.41" transform="translate(244 100)"><path d="M1.135402636602521 -0.9793285597115755 C19.917245555501434 20.669611733444036, 41.21855771673844 42.40902955405414, 54.62780215032399 52.63759828917682 M-0.5852664047852159 0.6053746128454804 C15.244439604636284 13.618290150240066, 31.273685701694344 28.43597157958895, 56.079254186712205 53.678846784867346" style="stroke: rgb(24, 100, 171); stroke-width: 1; fill: none;"></path></g><g stroke-opacity="0.41" fill-opacity="0.41" transform="translate(244 100)"><path d="M43.96468188111296 26.066411762439422 C46.503984054636334 37.19172914068034, 51.343277142539634 48.5357468777659, 54.62780215032399 52.63759828917682 M42.24401283972522 27.651114934996478 C46.387393384391814 33.59276882225401, 50.623561348467874 40.96338286196548, 56.079254186712205 53.678846784867346" style="stroke: rgb(24, 100, 171); stroke-width: 1; fill: none;"></path></g></g><g><g stroke-opacity="0.41" fill-opacity="0.41" transform="translate(422 152.75736635923386)"><path d="M37.87369681736604 -26.176797507711584 C39.06059620506147 -31.02861531053024, 41.84335298248809 -36.6073953647911, 49.5501392390579 -51.22879143618047 M37.91264031576142 -24.33518646416151 C40.11326072907947 -30.995059964700534, 44.193735582478936 -38.63961595041864, 49.43137370515615 -52.15987840760499" style="stroke: rgb(24, 100, 171); stroke-width: 1; fill: none;"></path></g><g stroke-opacity="0.41" fill-opacity="0.41" transform="translate(422 152.75736635923386)"><path d="M0.016788354143500328 -1.609357139095664 C9.20352454930544 -11.668188584689052, 20.09154096040875 -22.50691961767152, 49.5501392390579 -51.22879143618047 M0.055731852538883686 0.23225390445441008 C11.814871702603998 -12.448928098846228, 25.375822107568386 -26.245888684783132, 49.43137370515615 -52.15987840760499" style="stroke: rgb(24, 100, 171); stroke-width: 1; fill: none;"></path></g><g stroke-opacity="0.41" fill-opacity="0.41" transform="translate(422 152.75736635923386)"><path d="M23.08133112706921 -40.40022605607392 C27.49634835025406 -42.186086959367074, 33.44618795042687 -44.71959506867968, 49.5501392390579 -51.22879143618047 M23.120274625464592 -38.558615012523845 C28.980151589229727 -41.605301552505296, 36.76506684649648 -45.68789561142793, 49.43137370515615 -52.15987840760499" style="stroke: rgb(24, 100, 171); stroke-width: 1; fill: none;"></path></g></g></svg>